<?xml version="1.0" encoding="utf-8"?>
<!-- Generator: Adobe Illustrator 28.3.0, SVG Export Plug-In . SVG Version: 6.00 Build 0)  -->
<svg version="1.1" id="Ebene_1" xmlns="http://www.w3.org/2000/svg" xmlns:xlink="http://www.w3.org/1999/xlink" x="0px" y="0px"
	 viewBox="0 0 400 400" style="enable-background:new 0 0 400 400;" xml:space="preserve">
<style type="text/css">
	.st0{fill:#FA5A00;}
</style>
<g>
	<path class="st0" d="M170.77,257L140,165.78L260,143l-7.16,80.55L177,235.45L170.77,257z M142.6,167.28l28.03,83.08l4.8-16.63
		l0.63-0.1l74.94-11.76l6.8-76.46L142.6,167.28z"/>
</g>
<g>
	<path class="st0" d="M216.34,198.22c2.67-4.84,2.6-9.57-0.22-14.07c-2.13-3.41-5.7-5.68-9.77-6.24c-4.11-0.56-8.2,0.68-11.22,3.4
		c-2.98,2.67-4.49,6.14-4.51,10.31c-0.02,4.21,1.23,7.91,3.72,11c0.19,0.24,0.23,0.42,0.14,0.68c-0.11,0.33-0.2,0.66-0.29,1
		l-0.19,0.67l0.02,0.01l-0.06,0.21c-0.09,0.32-0.18,0.64-0.26,0.96c-0.25,1.05,0.09,1.7,0.99,2.06l-1.03-0.27l-0.33,1.36l10.51,2.79
		c0.24,0.06,1.04,0.26,1.04,0.26l0.45-1.49c0,0-0.69-0.2-0.65-0.2c0.53,0,1.02-0.36,1.21-0.91l0.07-0.2
		c0.28-0.79,0.58-1.61,0.78-2.45c0.17-0.68,0.44-0.99,0.98-1.09c0.15-0.03,0.28-0.1,0.39-0.15l0.11-0.05
		C211.73,204.16,214.46,201.61,216.34,198.22z M206.53,204.62c-0.68,0.27-1.08,0.73-1.24,1.41c-0.09,0.38-0.19,0.76-0.28,1.14
		c-0.15,0.61-0.3,1.21-0.43,1.83c-0.06,0.31-0.18,0.51-0.38,0.63c-0.05-0.03-0.1-0.05-0.14-0.07c-0.18-0.09-0.35-0.17-0.53-0.22
		c-2.04-0.57-4.08-1.13-6.12-1.69l-1.95-0.53c-0.52-0.14-0.54-0.17-0.4-0.67l0.19-0.7c0.2-0.73,0.4-1.46,0.62-2.19
		c0.19-0.62,0.08-1.18-0.32-1.71c-2.42-3.15-3.54-6.83-3.33-10.93c0.34-6.51,5.61-11.42,12.1-11.42c0.19,0,0.37,0,0.56,0.01
		c3.35,0.15,6.52,1.69,8.68,4.24c2.16,2.54,3.14,5.87,2.68,9.12c-0.42,2.98-1.85,5.67-4.38,8.21
		C210.33,202.63,208.53,203.82,206.53,204.62z"/>
	<path class="st0" d="M189.03,200.11c-0.1,0.04-0.17,0.06-0.24,0.1l-1.78,0.85c-1.58,0.76-3.16,1.51-4.72,2.29
		c-0.72,0.36-1.39,0.8-2.04,1.23l-0.18,0.12c-0.22,0.15-0.45,0.48-0.44,0.78c0.02,0.44,0.21,0.8,0.53,1
		c0.18,0.11,0.39,0.17,0.61,0.17c0.19,0,0.39-0.04,0.58-0.12c0.18-0.07,0.39-0.16,0.58-0.28l1.23-0.73
		c1.29-0.76,2.57-1.53,3.84-2.32c0.67-0.41,1.3-0.85,1.98-1.31c0.31-0.21,0.63-0.43,0.95-0.65l0.22-0.15l-0.72-1.15L189.03,200.11z"
		/>
	<path class="st0" d="M218.89,213.71c-1.58-2.78-3.16-5.21-4.85-7.43c-0.45-0.58-0.63-0.62-1.25-0.19
		c-0.05,0.04-0.09,0.07-0.17,0.13l0.16,0.22l0,0l-0.18-0.21l-0.15,0.12l0.1,0.25c0.03,0.08,0.06,0.16,0.1,0.24l0.86,1.73
		c0.71,1.44,1.45,2.93,2.2,4.38c0.44,0.85,0.97,1.64,1.52,2.44c0.25,0.36,0.49,0.5,0.75,0.5c0.2,0,0.41-0.08,0.64-0.21
		c0.73-0.38,0.85-0.73,0.53-1.47C219.07,214.06,218.99,213.88,218.89,213.71z"/>
	<path class="st0" d="M225.03,180.85c1.09-0.55,2.15-1.2,3.14-1.81c0.66-0.41,0.6-0.84,0.32-1.36c-0.39-0.71-0.75-0.84-1.49-0.53
		c-0.23,0.09-0.47,0.2-0.7,0.33l-1.06,0.63c-1.3,0.77-2.59,1.54-3.87,2.33c-0.68,0.42-1.35,0.87-2.05,1.35
		c-0.32,0.22-0.65,0.44-0.99,0.67l-0.22,0.14l0.7,1.15l0.45-0.17c0.13-0.05,0.22-0.08,0.3-0.12c0.52-0.25,1.04-0.49,1.55-0.74
		C222.4,182.13,223.73,181.5,225.03,180.85z"/>
	<path class="st0" d="M189.64,170.45c1,1.61,1.98,3.18,2.98,4.71c0.41,0.63,0.86,1.25,1.29,1.85c0.19,0.27,0.39,0.54,0.58,0.81
		l0.11,0.16l0.19-0.06c0.48-0.14,0.77-0.24,0.89-0.5c0.11-0.25,0-0.51-0.17-0.85c-0.94-1.9-1.9-3.87-2.92-5.8
		c-0.46-0.88-1.01-1.69-1.62-2.58c-0.47-0.69-1.09-0.32-1.39-0.14c-0.51,0.3-0.77,0.61-0.52,1.22
		C189.26,169.76,189.44,170.12,189.64,170.45z"/>
	<path class="st0" d="M208.07,175.75c0.1,0.03,0.19,0.04,0.28,0.04c0.3,0,0.51-0.17,0.63-0.5c0.5-1.37,1-2.74,1.5-4.1l0.38-1.03
		l0.03-0.28c0.05-0.15,0.11-0.3,0.15-0.45l0.17-0.62c0.23-0.87,0.47-1.77,0.68-2.66c0.07-0.3-0.06-0.77-0.32-0.97
		c-0.51-0.38-0.92-0.37-1.16-0.29c-0.24,0.08-0.57,0.3-0.75,0.89c-0.35,1.16-0.72,2.4-1,3.65c-0.27,1.19-0.51,2.41-0.74,3.58
		c-0.13,0.63-0.25,1.26-0.38,1.89C207.43,175.35,207.61,175.64,208.07,175.75z"/>
	<path class="st0" d="M231.6,197.78c-0.17-0.34-0.56-0.47-0.84-0.54c-0.06-0.02-0.13-0.04-0.19-0.07c-0.1-0.04-0.2-0.08-0.3-0.1
		l-1.04-0.23c-2.53-0.55-5.06-1.1-7.59-1.64c-0.37-0.08-0.65-0.09-0.85,0.08c-0.22,0.18-0.25,0.48-0.23,0.93l0.01,0.17l0.16,0.07
		c0.13,0.05,0.26,0.11,0.39,0.16c0.3,0.13,0.61,0.26,0.93,0.36l0.52,0.17c1.65,0.55,3.36,1.11,5.05,1.63
		c0.74,0.23,1.5,0.39,2.24,0.55l0.5,0.11c0.13,0.03,0.25,0.04,0.35,0.04c0.43,0,0.63-0.22,0.72-0.44
		C231.66,198.53,231.77,198.12,231.6,197.78z"/>
	<path class="st0" d="M181.28,187.44l-0.01,0.08l1.51,0.27c1.35,0.24,2.7,0.49,4.05,0.74c0.08,0.02,0.16,0.02,0.23,0.02
		c0.34,0,0.56-0.18,0.65-0.55c0.07-0.29,0.11-0.7-0.47-0.89c-0.73-0.24-1.45-0.49-2.17-0.74c-1.16-0.4-2.36-0.81-3.55-1.18
		c-1.23-0.39-2.51-0.68-3.61-0.93c-0.8-0.18-1.07,0.2-1.24,0.83c-0.17,0.65-0.12,1.07,0.68,1.3c0.99,0.29,1.99,0.55,2.99,0.81
		L181.28,187.44z"/>
	<path class="st0" d="M193.27,209.56l-0.29,1.38l11.45,2.93l0.36-1.24l-10.69-2.86C193.69,209.66,193.27,209.56,193.27,209.56z"/>
	<path class="st0" d="M206,198.1c-0.18,0.12-0.38,0.25-0.53,0.43c-0.64,0.76-1.15,1.41-1.63,2.03c-0.17,0.22-0.3,0.45-0.44,0.69
		c0,0,0,0,0,0c-0.02-0.03-0.04-0.07-0.05-0.09c-0.12-0.3-0.22-0.61-0.32-0.92l-0.13-0.39c-0.06-0.18-0.02-0.31,0.15-0.58
		c0.44-0.69,0.96-1.53,1.36-2.42c0.2-0.44,0.17-0.99,0.13-1.42c-0.05-0.49-0.42-0.84-1.01-0.97c-0.52-0.12-0.99,0.05-1.28,0.46
		c-0.21,0.3-0.43,0.63-0.47,0.99c-0.08,0.67-0.13,1.36-0.17,2.02c-0.02,0.28-0.04,0.56-0.06,0.84c0,0.05,0,0.11,0,0.17
		c0,0.05,0,0.12,0.02,0.11c-0.43,0.46-0.85,0.79-1.33,1.02c-0.02-0.2-0.04-0.38-0.07-0.56c-0.15-1.06-0.32-2.02-0.89-2.88
		c-0.45-0.68-1-0.76-1.38-0.71c-0.78,0.1-0.99,0.83-1.05,1.07c-0.34,1.18-0.2,2.32,0.41,3.39c0.37,0.65,0.92,1.05,1.56,1.15
		c0.18,0.03,0.19,0.03,0.19,0.3c-0.01,1.12-0.24,2.3-0.73,3.72l-0.06,0.15c-0.11,0.29-0.27,0.68-0.05,1.22l0.2,0.48l0.29-0.43
		c0.08-0.12,0.15-0.22,0.22-0.32c0.15-0.21,0.27-0.38,0.37-0.59c0.67-1.36,1.02-2.86,1.04-4.45c0-0.08,0.01-0.14,0.02-0.17
		c0.45-0.26,0.9-0.51,1.36-0.76l0.16-0.09c0.03,0.13,0.08,0.26,0.14,0.39l0.09,0.19c0.17,0.36,0.34,0.74,0.62,1.04
		c0.14,0.16,0.13,0.19,0.06,0.35c-0.61,1.23-0.98,2.57-1.1,3.99c-0.01,0.16,0,0.33,0.02,0.49c0.01,0.07,0.01,0.13,0.02,0.2
		l0.01,0.25l0.66,0.03l0.09-0.36c0.03-0.13,0.07-0.26,0.08-0.38c0.14-1.42,0.54-2.76,1.2-3.96c0.02-0.04,0.09-0.1,0.1-0.11
		c1.24-0.04,2.36-0.52,3.44-1.45c0.5-0.43,0.84-1,1.04-1.4c0.31-0.61,0.08-1.35-0.57-1.83C207.37,197.77,206.8,197.58,206,198.1z
		 M198.48,199.84c-0.47-0.72-0.6-1.55-0.38-2.46c0-0.02,0.03-0.05,0.06-0.09c0.01,0.01,0.02,0.02,0.03,0.02
		c0.21,0.62,0.48,1.44,0.7,2.27c0.05,0.2,0.07,0.42,0.08,0.66c0,0.01,0,0.01,0,0.02C198.78,200.19,198.62,200.06,198.48,199.84z
		 M202.76,197.54c0.01-0.62,0.11-1.15,0.32-1.64c0.09-0.22,0.15-0.26,0.16-0.26c0,0,0,0,0,0c0.06,0.04,0.14,0.24,0.13,0.36
		C203.29,196.58,203.05,197.09,202.76,197.54z M207.26,199.41c-0.1,0.26-0.21,0.46-0.35,0.6c-0.65,0.71-1.48,1.19-2.46,1.45
		l0.18-0.23c0.4-0.53,0.8-1.06,1.22-1.57c0.21-0.25,0.5-0.49,0.81-0.67c0.08-0.05,0.2-0.07,0.29-0.07c0.06,0,0.11,0.01,0.14,0.02
		C207.27,199.04,207.33,199.22,207.26,199.41z"/>
	<path class="st0" d="M192.94,211.22c0,0-0.09,0.6-0.12,0.87c-0.02,0.13-0.02,0.57,0.15,0.84c0.39,0.64,0.91,1.08,1.39,1.41
		c1.25,0.88,2.7,1.25,3.97,1.54c0.07,0.01,0.14,0.02,0.21,0.04c0.94,0.23,1.96,0.38,3.01,0.28c0.58-0.06,1.26-0.19,1.92-0.55
		c0.28-0.15,0.5-0.53,0.56-0.65c0.11-0.25,0.34-0.82,0.34-0.82l-8.63-2.21L192.94,211.22z"/>
</g>
</svg>
