<?xml version="1.0" encoding="utf-8"?>
<!-- Generator: Adobe Illustrator 28.3.0, SVG Export Plug-In . SVG Version: 6.00 Build 0)  -->
<svg version="1.1" id="Ebene_1" xmlns="http://www.w3.org/2000/svg" xmlns:xlink="http://www.w3.org/1999/xlink" x="0px" y="0px"
	 viewBox="0 0 875 495.69" style="enable-background:new 0 0 875 495.69;" xml:space="preserve">
<style type="text/css">
	.st0{fill:url(#SVGID_1_);}
	.st1{fill:#FA5A00;}
	.st2{fill:#FFFFFF;}
	.st3{fill:#008291;}
</style>
<linearGradient id="SVGID_1_" gradientUnits="userSpaceOnUse" x1="0" y1="134.2431" x2="874.0087" y2="134.2431" gradientTransform="matrix(1 0 0 -1 0 497.3896)">
	<stop  offset="0.02" style="stop-color:#DADEE1;stop-opacity:0"/>
	<stop  offset="0.15" style="stop-color:#DADEE1"/>
</linearGradient>
<polygon class="st0" points="715.52,495.69 875,230.6 0,230.6 0,495.69 "/>
<polygon class="st1" points="153.02,0 0,256.47 715.52,256.47 715.52,0 "/>
<g>
	<path class="st2" d="M215.52,34.48h23.71l-4.31,34.48h12.93v23.71h-15.09l-4.31,19.4h15.09v23.71h-17.24l-4.31,34.48h-23.71
		l4.31-34.48h-12.93l-4.31,34.48h-23.71l4.31-34.48h-12.93v-23.71h17.24l2.16-19.4h-15.09V68.97h17.24l4.31-34.48h23.71l-4.31,34.48
		h12.93L215.52,34.48z M209.05,92.67h-12.93l-2.16,19.4h12.93L209.05,92.67z"/>
	<path class="st2" d="M327.59,30.17h36.64v140.09h-40.95l-21.55-86.21l0,0v86.21h-36.64V30.17h43.1l19.4,86.21l0,0
		C327.59,116.38,327.59,30.17,327.59,30.17z"/>
	<path class="st2" d="M383.62,30.17h84.05V62.5h-43.1v21.55h43.1v30.17h-43.1v23.71h47.41v32.33h-86.21V30.17H383.62z"/>
	<path class="st2" d="M545.26,30.17h43.1l-30.17,68.97l34.48,71.12h-47.41l-10.78-43.1l0,0l-10.78,43.1h-47.41l34.48-71.12
		L480.6,30.17h43.1l10.78,40.95l0,0L545.26,30.17z"/>
	<path class="st2" d="M592.67,30.17h92.67V62.5h-28.02v107.76h-38.79V62.5h-25.86V30.17z"/>
</g>
<g>
	<path class="st2" d="M176.72,217.67h23.71v38.79H187.5V250l0,0c-4.31,6.47-8.62,8.62-15.09,8.62c-19.4,0-21.55-17.24-21.55-36.64
		c0-19.4,2.16-36.64,25.86-36.64c19.4,0,23.71,8.62,23.71,23.71h-17.24v-4.31c0-4.31-2.16-8.62-4.31-8.62
		c-6.47,2.16-6.47,6.47-6.47,10.78v28.02c0,4.31,0,8.62,4.31,8.62c4.31,0,6.47-4.31,6.47-8.62v-4.31h-6.47V217.67z"/>
	<path class="st2" d="M211.21,185.34h43.1v15.09h-21.55v10.78h21.55v15.09h-21.55v12.93h23.71v15.09h-43.1v-68.97H211.21z"/>
	<path class="st2" d="M297.41,185.34h19.4v71.12h-21.55l-10.78-43.1l0,0v43.1h-19.4v-71.12h21.55l10.78,43.1l0,0V185.34z"/>
	<path class="st2" d="M327.59,185.34h43.1v15.09h-23.71v10.78h21.55v15.09h-21.55v12.93h23.71v15.09h-43.1V185.34z"/>
	<path class="st2" d="M381.47,185.34h30.17c12.93,0,19.4,6.47,19.4,19.4c0,10.78-6.47,15.09-12.93,17.24l0,0
		c4.31,0,8.62,2.16,8.62,6.47c4.31,2.16,4.31,6.47,4.31,10.78v6.47c0,4.31,0,6.47,0,8.62l2.16,2.16l0,0h-21.55
		c0-2.16-2.16-6.47-2.16-10.78c0-4.31,0-6.47,0-10.78c0-6.47-2.16-6.47-6.47-6.47h-2.16v28.02h-19.4V185.34z M400.86,215.52h2.16
		c4.31,0,6.47-2.16,6.47-8.62c0-6.47-2.16-6.47-6.47-6.47h-2.16V215.52z"/>
	<path class="st2" d="M471.98,245.69h-12.93l-2.16,10.78h-21.55l17.24-71.12h25.86l17.24,71.12h-21.55L471.98,245.69z
		 M465.52,200.43L465.52,200.43l-4.31,30.17h8.62L465.52,200.43z"/>
	<path class="st2" d="M493.53,185.34h45.26v17.24h-12.93v53.88h-19.4v-53.88h-12.93V185.34z"/>
	<path class="st2" d="M545.26,185.34h19.4v71.12h-19.4V185.34z"/>
	<path class="st2" d="M599.14,185.34c25.86,0,25.86,15.09,25.86,36.64s0,36.64-25.86,36.64s-25.86-15.09-25.86-36.64
		C573.28,198.28,573.28,185.34,599.14,185.34z M599.14,198.28c-4.31,0-4.31,2.16-4.31,23.71s0,23.71,4.31,23.71
		c4.31,0,4.31-2.16,4.31-23.71C605.6,200.43,603.45,198.28,599.14,198.28z"/>
	<path class="st2" d="M665.95,185.34h19.4v71.12h-21.55l-10.78-43.1l0,0v43.1h-17.24v-71.12h21.55l10.78,43.1l0,0v-43.1H665.95z"/>
</g>
<g>
	<path class="st3" d="M153.02,256.47h60.34c19.4,0,30.17,6.47,36.64,19.4c6.47,10.78,8.62,19.4,8.62,53.88
		c0,32.33-2.16,73.28-45.26,73.28h-60.34V256.47z M193.97,375h8.62c10.78,0,12.93-10.78,12.93-23.71v-43.1
		c0-15.09-2.16-23.71-15.09-23.71h-6.47V375z"/>
	<path class="st3" d="M282.33,256.47h88.36v34.48h-47.41v23.71h45.26v30.17h-45.26v25.86h49.57v34.48h-90.52V256.47z"/>
	<path class="st3" d="M394.4,256.47h40.95v148.71H394.4V256.47z"/>
	<path class="st3" d="M528.02,256.47h38.79v148.71h-45.26L500,312.5l0,0v90.52h-38.79V256.47h45.26l21.55,90.52l0,0V256.47z"/>
	<path class="st3" d="M594.83,256.47h90.52v34.48h-49.57v23.71h45.26v30.17h-45.26v25.86h49.57v34.48h-90.52V256.47z"/>
</g>
<g>
	<path class="st3" d="M153.02,415.95h32.33v10.78h-8.62v38.79h-12.93v-38.79h-8.62L153.02,415.95z"/>
	<path class="st3" d="M187.5,415.95h21.55c10.78,0,12.93,4.31,12.93,12.93s-4.31,10.78-8.62,12.93l0,0c2.16,0,4.31,2.16,6.47,4.31
		c2.16,0,2.16,4.31,2.16,6.47v4.31c0,2.16,0,4.31,0,6.47c0,0,0,2.16,2.16,2.16l0,0h-15.09c0-2.16,0-4.31,0-6.47
		c0-2.16,0-4.31,0-6.47c0-4.31-2.16-4.31-4.31-4.31h-2.16v19.4h-12.93L187.5,415.95z M202.59,437.5L202.59,437.5
		c4.31,0,6.47,0,6.47-6.47c0-4.31-2.16-4.31-4.31-4.31h-2.16V437.5z"/>
	<path class="st3" d="M252.16,456.9h-10.78v8.62h-15.09l10.78-49.57h17.24l10.78,49.57H250L252.16,456.9z M245.69,426.72
		L245.69,426.72l-4.31,21.55h6.47L245.69,426.72z"/>
	<path class="st3" d="M293.1,415.95h12.93v49.57h-15.09l-8.62-30.17l0,0v30.17H269.4v-49.57h15.09l6.47,30.17l0,0L293.1,415.95z"/>
	<path class="st3" d="M331.9,428.88c0-2.16,0-4.31-4.31-4.31c-2.16,0-2.16,2.16-2.16,4.31c0,10.78,21.55,4.31,21.55,23.71
		c0,10.78-4.31,17.24-19.4,17.24c-10.78,0-17.24-4.31-17.24-15.09v-4.31h12.93v2.16c0,2.16,0,4.31,4.31,4.31
		c2.16,0,4.31-2.16,4.31-4.31c0-2.16-2.16-4.31-2.16-4.31c-2.16,0-4.31-2.16-6.47-4.31c-8.62-2.16-10.78-6.47-10.78-12.93
		s2.16-10.78,4.31-12.93c2.16-2.16,6.47-4.31,10.78-4.31c15.09,0,17.24,6.47,17.24,15.09H331.9L331.9,428.88z"/>
	<path class="st3" d="M351.29,415.95h30.17v10.78h-15.09v8.62h15.09v10.78h-15.09v19.4h-12.93L351.29,415.95z"/>
	<path class="st3" d="M400.86,413.79c17.24,0,17.24,10.78,17.24,25.86c0,15.09,0,25.86-17.24,25.86s-17.24-8.62-17.24-25.86
		C383.62,424.57,383.62,413.79,400.86,413.79z M400.86,424.57c-2.16,0-4.31,2.16-4.31,17.24c0,15.09,0,17.24,4.31,17.24
		c2.16,0,4.31-2.16,4.31-17.24C405.17,426.72,405.17,424.57,400.86,424.57z"/>
	<path class="st3" d="M424.57,415.95h21.55c10.78,0,12.93,4.31,12.93,12.93s-4.31,10.78-8.62,12.93l0,0c2.16,0,4.31,2.16,6.47,4.31
		c2.16,0,2.16,4.31,2.16,6.47v4.31c0,2.16,0,4.31,0,6.47c0,0,0,2.16,2.16,2.16l0,0h-15.09c0-2.16,0-4.31,0-6.47
		c0-2.16,0-4.31,0-6.47c0-4.31-2.16-4.31-4.31-4.31h-2.16v19.4h-12.93L424.57,415.95z M439.66,437.5L439.66,437.5
		c4.31,0,6.47,0,6.47-6.47c0-4.31-2.16-4.31-4.31-4.31h-2.16V437.5z"/>
	<path class="st3" d="M465.52,415.95h19.4l4.31,30.17l0,0l6.47-30.17h19.4v49.57h-12.93v-36.64l0,0l-6.47,36.64h-10.78l-6.47-36.64
		l0,0v36.64h-12.93V415.95z"/>
	<path class="st3" d="M543.1,456.9h-8.62l-2.16,8.62h-15.09l10.78-49.57h17.24l10.78,49.57h-15.09L543.1,456.9z M538.79,426.72
		L538.79,426.72l-4.31,21.55h6.47L538.79,426.72z"/>
	<path class="st3" d="M556.03,415.95h32.33v10.78h-8.62v38.79h-12.93v-38.79h-8.62L556.03,415.95z"/>
	<path class="st3" d="M590.52,415.95h12.93v49.57h-12.93V415.95z"/>
	<path class="st3" d="M627.16,413.79c17.24,0,17.24,10.78,17.24,25.86c0,15.09,0,25.86-17.24,25.86
		c-17.24,0-17.24-10.78-17.24-25.86C607.76,424.57,607.76,413.79,627.16,413.79z M627.16,424.57c-2.16,0-4.31,2.16-4.31,17.24
		c0,15.09,0,17.24,4.31,17.24c2.16,0,4.31-2.16,4.31-17.24C629.31,426.72,629.31,424.57,627.16,424.57z"/>
	<path class="st3" d="M672.41,415.95h12.93v49.57h-15.09l-8.62-30.17l0,0v30.17h-12.93v-49.57h15.09l6.47,30.17l0,0L672.41,415.95z"
		/>
</g>
</svg>
